<?xml version="1.0" encoding="UTF-8" standalone="no"?>
<!DOCTYPE svg PUBLIC "-//W3C//DTD SVG 1.1//EN" "http://www.w3.org/Graphics/SVG/1.1/DTD/svg11.dtd">
<svg width="100%" height="100%" viewBox="0 0 20 20" version="1.1" xmlns="http://www.w3.org/2000/svg" xmlns:xlink="http://www.w3.org/1999/xlink" xml:space="preserve" xmlns:serif="http://www.serif.com/" style="fill-rule:evenodd;clip-rule:evenodd;stroke-linejoin:round;stroke-miterlimit:2;">
    <g transform="matrix(1,0,0,1,-121.371,-1100.13)">
        <g transform="matrix(2.66667,0,0,2.66667,0,0)">
            <g transform="matrix(1,0,0,1,0,256.283)">
                <path d="M46.688,156.271C46.184,156.32 45.814,156.642 45.645,157.018C45.526,157.286 45.54,157.485 45.536,157.798C45.525,158.69 45.537,159.589 45.524,160.487C45.52,160.776 45.504,162.09 45.523,162.283C45.564,162.713 45.886,163.174 46.265,163.327C46.592,163.459 46.691,163.422 47.065,163.423C48.554,163.425 50.042,163.449 51.529,163.451C51.872,163.452 52.207,163.219 52.396,162.985C52.461,162.904 52.513,162.811 52.564,162.701C52.682,162.445 52.679,162.228 52.676,161.92C52.669,161.019 52.682,160.118 52.679,159.219C52.678,158.925 52.677,158.623 52.683,158.328C52.691,157.942 52.734,157.422 52.601,157.078C52.557,156.964 52.5,156.872 52.441,156.787C52.332,156.628 52.12,156.469 51.949,156.385C51.708,156.266 51.466,156.269 51.165,156.27L47.131,156.27C46.994,156.269 46.818,156.258 46.688,156.271ZM49.406,158.768L49.403,158.94L48.646,158.944C48.645,159.058 48.623,159.818 48.655,159.892C48.743,159.926 49.243,159.89 49.394,159.91C49.413,160.181 49.404,160.648 49.405,160.928C49.406,161.499 49.393,162.151 49.403,162.714L49.405,162.763L50.66,162.772C50.671,162.574 50.665,162.286 50.665,162.085C50.665,161.914 50.651,159.977 50.669,159.914C50.73,159.897 51.014,159.909 51.099,159.909C51.186,159.909 51.473,159.921 51.534,159.898L51.54,158.947C51.498,158.946 50.706,158.952 50.666,158.937C50.63,158.845 50.637,158.431 50.818,158.288C51.004,158.141 51.335,158.253 51.545,158.2L51.548,157.314C51.542,157.274 51.554,157.305 51.537,157.282C51.505,157.25 51.279,157.261 51.22,157.262C50.712,157.264 50.166,157.267 49.839,157.54C49.414,157.895 49.406,158.244 49.406,158.768" style="fill:rgb(35,31,32);"/>
            </g>
        </g>
    </g>
</svg>
