<?xml version="1.0" encoding="UTF-8" standalone="no"?>
<!DOCTYPE svg PUBLIC "-//W3C//DTD SVG 1.1//EN" "http://www.w3.org/Graphics/SVG/1.1/DTD/svg11.dtd">
<svg width="100%" height="100%" viewBox="0 0 20 20" version="1.1" xmlns="http://www.w3.org/2000/svg" xmlns:xlink="http://www.w3.org/1999/xlink" xml:space="preserve" xmlns:serif="http://www.serif.com/" style="fill-rule:evenodd;clip-rule:evenodd;stroke-linejoin:round;stroke-miterlimit:2;">
    <g transform="matrix(1,0,0,1,-142.784,-1100.09)">
        <g transform="matrix(2.66667,0,0,2.66667,0,0)">
            <g transform="matrix(1,0,0,1,0,256.292)">
                <path d="M55.287,156.25C54.772,156.283 54.361,156.362 54.001,156.752C53.648,157.135 53.573,157.57 53.563,158.097C53.552,158.69 53.56,159.286 53.554,159.878C53.548,160.467 53.537,161.08 53.552,161.668C53.562,162.092 53.615,162.393 53.825,162.726C53.98,162.971 54.304,163.231 54.578,163.316C55.089,163.475 55.734,163.417 56.271,163.422C56.569,163.424 56.865,163.418 57.164,163.421C57.456,163.424 57.765,163.429 58.056,163.423C58.357,163.416 58.66,163.433 58.96,163.425C59.754,163.406 60.336,163.092 60.59,162.373C60.676,162.131 60.689,161.854 60.689,161.58C60.691,160.386 60.696,159.192 60.696,157.998C60.696,157.731 60.661,157.448 60.569,157.227C60.477,157.009 60.343,156.812 60.209,156.694C59.799,156.335 59.446,156.252 58.861,156.251C58.266,156.25 57.671,156.247 57.076,156.248C56.778,156.248 56.48,156.247 56.183,156.248C55.895,156.249 55.567,156.232 55.287,156.25ZM58.441,158.126C58.054,158.26 58.23,158.818 58.62,158.714C58.763,158.676 58.88,158.523 58.832,158.336C58.797,158.2 58.623,158.063 58.441,158.126ZM56.264,157.191C55.667,157.225 55.213,157.26 54.823,157.741C54.46,158.189 54.488,158.816 54.482,159.387C54.477,159.821 54.471,160.263 54.479,160.698C54.492,161.351 54.567,161.741 55.015,162.141C55.428,162.511 56.114,162.484 56.646,162.489C57.082,162.494 57.536,162.497 57.969,162.482C58.386,162.467 58.742,162.429 59.053,162.245C59.298,162.101 59.532,161.835 59.641,161.511C59.759,161.158 59.754,160.697 59.756,160.301C59.758,159.862 59.766,159.417 59.753,158.979C59.74,158.514 59.72,158.243 59.522,157.887C59.457,157.77 59.32,157.622 59.213,157.536C58.759,157.169 58.172,157.188 57.582,157.188C57.154,157.188 56.684,157.167 56.264,157.191ZM56.955,158.489C56.209,158.592 55.713,159.215 55.773,159.993C55.788,160.186 55.858,160.35 55.938,160.502L56.077,160.705C56.145,160.787 56.17,160.804 56.248,160.875C56.47,161.076 56.87,161.231 57.27,161.181C57.956,161.096 58.549,160.474 58.461,159.68C58.378,158.937 57.69,158.388 56.955,158.489ZM57.029,158.94C56.56,158.981 56.186,159.401 56.229,159.927C56.253,160.218 56.444,160.49 56.66,160.606C57.394,161.001 58.067,160.403 58.006,159.74C57.963,159.275 57.554,158.893 57.029,158.94ZM56.154,157.654C55.744,157.686 55.579,157.683 55.303,157.9C54.856,158.252 54.946,159.153 54.939,159.717C54.935,160.069 54.928,160.451 54.945,160.801C54.961,161.137 55.005,161.448 55.18,161.657C55.339,161.846 55.587,161.976 55.929,162C56.464,162.039 57.538,162.028 58.101,162.015C58.427,162.008 58.746,161.951 58.938,161.767C59.171,161.543 59.236,161.357 59.273,161.012C59.312,160.648 59.301,159.293 59.291,158.869C59.261,157.52 58.38,157.644 57.241,157.642C56.89,157.641 56.499,157.628 56.154,157.654" style="fill:rgb(35,31,32);"/>
            </g>
        </g>
    </g>
</svg>
