<?xml version="1.0" encoding="UTF-8" standalone="no"?>
<!DOCTYPE svg PUBLIC "-//W3C//DTD SVG 1.1//EN" "http://www.w3.org/Graphics/SVG/1.1/DTD/svg11.dtd">
<svg width="100%" height="100%" viewBox="0 0 20 20" version="1.1" xmlns="http://www.w3.org/2000/svg" xmlns:xlink="http://www.w3.org/1999/xlink" xml:space="preserve" xmlns:serif="http://www.serif.com/" style="fill-rule:evenodd;clip-rule:evenodd;stroke-linejoin:round;stroke-miterlimit:2;">
    <g transform="matrix(1,0,0,1,-164.117,-1100.13)">
        <g transform="matrix(2.66667,0,0,2.66667,0,0)">
            <g transform="matrix(1,0,0,1,0,256.283)">
                <path d="M62.717,156.271C62.213,156.32 61.844,156.642 61.676,157.018C61.556,157.286 61.57,157.485 61.566,157.798C61.555,158.69 61.567,159.589 61.554,160.487C61.55,160.776 61.534,162.09 61.553,162.283C61.594,162.713 61.916,163.174 62.295,163.327C62.622,163.459 62.721,163.422 63.095,163.423C64.584,163.425 66.072,163.449 67.559,163.451C67.902,163.452 68.237,163.219 68.426,162.985C68.491,162.904 68.543,162.811 68.594,162.701C68.712,162.445 68.709,162.228 68.706,161.92C68.699,161.019 68.712,160.118 68.709,159.219C68.708,158.925 68.707,158.623 68.713,158.328C68.721,157.942 68.763,157.422 68.631,157.078C68.587,156.964 68.53,156.872 68.471,156.787C68.362,156.628 68.15,156.469 67.979,156.385C67.738,156.266 67.496,156.269 67.195,156.27L63.161,156.27C63.024,156.269 62.848,156.258 62.717,156.271ZM62.708,162.236L62.719,162.236L63.763,162.236L63.775,162.235L63.776,159.026L62.708,159.025L62.708,162.236ZM63.193,157.479C62.419,157.534 62.474,158.636 63.295,158.585C63.62,158.564 63.873,158.328 63.842,157.983C63.813,157.661 63.549,157.454 63.193,157.479ZM64.365,162.235L64.395,162.237C64.529,162.237 65.411,162.241 65.434,162.236L65.435,160.388C65.427,160.252 65.49,160.106 65.571,160.006C65.641,159.92 65.739,159.838 65.891,159.805C66.048,159.771 66.203,159.803 66.315,159.876C66.408,159.937 66.479,160.048 66.519,160.193C66.56,160.347 66.557,160.507 66.557,160.673L66.557,162.105C66.557,162.142 66.554,162.201 66.558,162.236L67.623,162.236C67.628,162.198 67.624,161.545 67.624,161.489L67.624,160.738C67.624,160.269 67.643,159.875 67.397,159.466C67.193,159.127 66.816,158.95 66.415,158.949C66.186,158.949 65.973,158.997 65.81,159.097C65.769,159.122 65.736,159.146 65.7,159.173C65.602,159.247 65.516,159.358 65.447,159.458C65.445,159.46 65.444,159.463 65.442,159.465C65.442,159.466 65.44,159.468 65.439,159.468L65.434,159.026C65.412,159.021 64.386,159.025 64.366,159.025C64.377,159.557 64.372,160.094 64.371,160.627L64.367,161.83C64.366,161.964 64.368,162.101 64.365,162.235" style="fill:rgb(35,31,32);"/>
            </g>
        </g>
    </g>
</svg>
