<?xml version="1.0" encoding="UTF-8" standalone="no"?>
<!DOCTYPE svg PUBLIC "-//W3C//DTD SVG 1.1//EN" "http://www.w3.org/Graphics/SVG/1.1/DTD/svg11.dtd">
<svg width="100%" height="100%" viewBox="0 0 164 39" version="1.1" xmlns="http://www.w3.org/2000/svg" xmlns:xlink="http://www.w3.org/1999/xlink" xml:space="preserve" xmlns:serif="http://www.serif.com/" style="fill-rule:evenodd;clip-rule:evenodd;stroke-linejoin:round;stroke-miterlimit:2;">
    <g transform="matrix(1,0,0,1,-97.332,-56.8472)">
        <g transform="matrix(2.66667,0,0,2.66667,0,0)">
            <text x="51.984px" y="28.72px" style="font-family:'Consolas', monospace;font-size:5.917px;fill:rgb(230,231,232);">F<tspan x="55.745px " y="28.72px ">R</tspan></text>
            <text x="60.564px" y="28.72px" style="font-family:'Consolas', monospace;font-size:5.917px;fill:rgb(230,231,232);">A<tspan x="64.325px 68.086px 71.847px 75.608px 79.369px 83.13px 86.891px 90.652px 94.413px " y="28.72px 28.72px 28.72px 28.72px 28.72px 28.72px 28.72px 28.72px 28.72px ">SSESSORIA</tspan></text>
            <text x="56.901px" y="34.277px" style="font-family:'Consolas', monospace;font-size:2.957px;fill:rgb(234,192,104);">E</text>
            <text x="60.244px" y="34.277px" style="font-family:'Consolas', monospace;font-size:2.957px;fill:rgb(234,192,104);">M<tspan x="62.157px 64.233px 66.147px 68.223px " y="34.277px 34.277px 34.277px 34.277px "> P R</tspan></text>
            <text x="71.551px" y="34.277px" style="font-family:'Consolas', monospace;font-size:2.957px;fill:rgb(234,192,104);">E</text>
            <text x="74.876px" y="34.277px" style="font-family:'Consolas', monospace;font-size:2.957px;fill:rgb(234,192,104);">S<tspan x="76.789px 78.866px " y="34.277px 34.277px "> A</tspan></text>
            <text x="82.112px" y="34.277px" style="font-family:'Consolas', monospace;font-size:2.957px;fill:rgb(234,192,104);">R<tspan x="84.025px 86.102px 88.015px 89.928px 92.005px " y="34.277px 34.277px 34.277px 34.277px 34.277px "> IA L</tspan></text>
        </g>
        <g transform="matrix(2.66667,0,0,2.66667,0,0)">
            <g transform="matrix(1,0,0,1,0,-518.926)">
                <path d="M46.268,550.235C46.416,550.445 46.567,550.654 46.719,550.862C46.972,551.208 47.232,551.551 47.482,551.899L49.484,554.681L45.666,554.682L45.538,554.448C45.492,554.364 45.429,554.277 45.375,554.199C45.271,554.049 45.163,553.9 45.056,553.753C44.765,553.356 44.47,552.963 44.175,552.569C43.882,552.178 43.589,551.787 43.302,551.393C43.173,551.217 43.025,551.02 42.896,550.825L40.36,550.805L40.348,548.078L40.742,548.025C41.366,547.942 41.973,547.962 42.599,547.993C43.093,548.016 43.615,548.048 44.105,547.965C44.556,547.889 44.935,547.718 45.29,547.428C45.735,547.065 46.042,546.54 46.139,545.974C46.28,545.15 46.067,544.786 45.716,544.087L45.614,543.884L45.716,543.681C45.779,543.557 45.875,543.422 45.953,543.307C46.075,543.128 46.201,542.951 46.327,542.776C46.482,542.562 46.875,541.995 47.081,541.855L47.38,541.652L47.643,541.898C48.257,542.472 48.679,543.308 48.899,544.11C49.156,545.046 49.178,546.058 48.903,546.993C48.507,548.336 47.539,549.601 46.268,550.235ZM46.119,543.885C46.456,544.556 46.755,545.052 46.584,546.05C46.448,546.842 46.004,547.429 45.576,547.778C44.152,548.941 42.645,548.226 40.801,548.473L40.809,550.358L43.15,550.376C43.448,550.915 45.662,553.734 45.934,554.231L48.604,554.23L47.116,552.163C46.879,551.829 45.683,550.245 45.598,550.026C46.974,549.562 48.059,548.258 48.47,546.866C48.989,545.106 48.313,543.141 47.335,542.228C47.186,542.33 46.227,543.67 46.119,543.885ZM36.951,542.625L44.766,542.643C44.94,542.345 45.184,542.015 45.383,541.708C45.537,541.47 45.926,540.943 46.01,540.697L36.953,540.695L36.951,542.625ZM38.927,554.125L38.936,546.531L43.827,546.517C44.994,546.334 44.848,544.685 43.845,544.627L36.978,544.622L36.98,554.136L38.927,554.125ZM36.5,543.075L36.502,540.244L46.639,540.246L46.437,540.842C46.316,541.198 45.972,541.63 45.761,541.954C45.563,542.26 45.339,542.556 45.156,542.87L45.025,543.095L36.5,543.075ZM39.387,546.981L39.377,554.574L36.529,554.589L36.526,544.17L43.859,544.176L43.872,544.177C45.411,544.266 45.592,546.697 43.897,546.963L43.863,546.968L39.387,546.981Z" style="fill:rgb(234,192,104);"/>
            </g>
        </g>
    </g>
</svg>
