<?xml version="1.0" encoding="UTF-8" standalone="no"?>
<!DOCTYPE svg PUBLIC "-//W3C//DTD SVG 1.1//EN" "http://www.w3.org/Graphics/SVG/1.1/DTD/svg11.dtd">
<svg width="100%" height="100%" viewBox="0 0 37 23" version="1.1" xmlns="http://www.w3.org/2000/svg" xmlns:xlink="http://www.w3.org/1999/xlink" xml:space="preserve" xmlns:serif="http://www.serif.com/" style="fill-rule:evenodd;clip-rule:evenodd;stroke-linejoin:round;stroke-miterlimit:2;">
    <g transform="matrix(1,0,0,1,-1634.18,-28.8203)">
        <g transform="matrix(2.66667,0,0,2.66667,1033.2,0)">
            <g transform="matrix(1,0,0,1,0,-452.606)">
                <path d="M225.856,463.414L238.641,463.414C238.91,463.414 239.13,463.634 239.13,463.903L239.13,463.903C239.13,464.172 238.91,464.392 238.641,464.392L225.856,464.392C225.587,464.392 225.368,464.172 225.368,463.903L225.368,463.903C225.368,463.634 225.587,463.414 225.856,463.414" style="fill:rgb(234,192,104);"/>
            </g>
        </g>
        <g transform="matrix(2.66667,0,0,2.66667,1033.2,0)">
            <g transform="matrix(1,0,0,1,0,-445.2)">
                <path d="M225.856,459.711L238.641,459.711C238.91,459.711 239.13,459.93 239.13,460.199L239.13,460.2C239.13,460.469 238.91,460.689 238.641,460.689L225.856,460.689C225.587,460.689 225.368,460.469 225.368,460.2L225.368,460.199C225.368,459.93 225.587,459.711 225.856,459.711" style="fill:rgb(234,192,104);"/>
            </g>
        </g>
        <g transform="matrix(2.66667,0,0,2.66667,1033.2,0)">
            <g transform="matrix(1,0,0,1,0,-437.793)">
                <path d="M225.856,456.007L238.641,456.007C238.91,456.007 239.13,456.227 239.13,456.496L239.13,456.496C239.13,456.765 238.91,456.985 238.641,456.985L225.856,456.985C225.587,456.985 225.368,456.765 225.368,456.496L225.368,456.496C225.368,456.227 225.587,456.007 225.856,456.007" style="fill:rgb(234,192,104);"/>
            </g>
        </g>
    </g>
</svg>
