<?xml version="1.0" encoding="UTF-8" standalone="no"?>
<!DOCTYPE svg PUBLIC "-//W3C//DTD SVG 1.1//EN" "http://www.w3.org/Graphics/SVG/1.1/DTD/svg11.dtd">
<svg width="100%" height="100%" viewBox="0 0 35 39" version="1.1" xmlns="http://www.w3.org/2000/svg" xmlns:xlink="http://www.w3.org/1999/xlink" xml:space="preserve" xmlns:serif="http://www.serif.com/" style="fill-rule:evenodd;clip-rule:evenodd;stroke-linejoin:round;stroke-miterlimit:2;">
    <g transform="matrix(1,0,0,1,-660.145,-548.147)">
        <g transform="matrix(2.66667,0,0,2.66667,0,0)">
            <g transform="matrix(1,0,0,1,0,-150.364)">
                <path d="M249.65,357.071C248.219,357.28 247.554,356.694 247.554,357.536L247.554,369.872C247.554,370.445 247.96,370.303 248.497,370.298C250.042,370.283 258.168,370.39 258.367,370.23C258.479,370.139 258.489,369.856 258.493,369.704C258.498,369.524 258.486,369.333 258.491,369.145C258.893,369.086 259.321,369.114 259.729,369.119C260.355,369.128 260.587,369.281 260.587,368.681L260.587,358.131C260.587,357.705 258.8,355.92 258.367,355.92L250.115,355.92C249.503,355.92 249.681,356.005 249.65,357.071ZM251.643,360.132C251.678,360.51 251.679,360.52 252.071,360.52L258.197,360.52C258.492,360.52 258.556,360.456 258.585,360.204C258.099,359.83 253.505,360.201 252.157,360.074L251.643,360.132ZM251.663,358.897C251.993,359.146 256.118,359.024 257.091,359.024C257.412,359.024 258.853,359.176 258.564,358.711C258.415,358.471 255.495,358.591 255.049,358.591L252.234,358.584C251.884,358.583 251.665,358.536 251.663,358.897ZM251.646,363.129C251.679,363.488 251.678,363.493 252.071,363.493L258.24,363.493C258.49,363.493 258.555,363.432 258.585,363.181C258.436,363.061 258.477,363.048 258.197,363.048C257.47,363.048 251.867,362.949 251.646,363.129ZM251.644,366.106C251.699,366.638 251.832,366.469 253.177,366.469L257.948,366.475C258.346,366.477 258.54,366.551 258.585,366.158C258.381,365.987 258.481,366.026 258.112,366.026L258.197,366.026C257.479,366.026 251.857,365.928 251.644,366.106ZM251.689,361.916C252.164,362.131 256.064,361.997 257.176,361.998C257.414,361.998 259.043,362.126 258.531,361.645C258.36,361.484 253.914,361.562 253.092,361.562C252.549,361.562 251.566,361.373 251.689,361.916ZM251.689,364.894C252.17,365.106 256.06,364.973 257.176,364.973C257.415,364.973 259.038,365.101 258.533,364.621C258.36,364.457 253.916,364.536 253.092,364.536C252.554,364.536 251.571,364.332 251.689,364.894ZM250.089,368.671L260.133,368.671C260.247,365.987 260.13,361.948 260.143,358.982C260.146,358.321 260.264,358.165 259.887,357.802C257.99,355.974 259.109,356.371 255.73,356.371L250.124,356.371L250.089,368.671ZM248,369.836L258.017,369.846L258.052,369.118C256.948,369.118 250.223,369.195 249.729,369.065C249.477,368.366 249.697,359.209 249.65,357.575L248.008,357.544L248,369.836Z" style="fill:rgb(234,192,104);"/>
            </g>
        </g>
    </g>
</svg>
