<?xml version="1.0" encoding="UTF-8" standalone="no"?>
<!DOCTYPE svg PUBLIC "-//W3C//DTD SVG 1.1//EN" "http://www.w3.org/Graphics/SVG/1.1/DTD/svg11.dtd">
<svg width="100%" height="100%" viewBox="0 0 61 39" version="1.1" xmlns="http://www.w3.org/2000/svg" xmlns:xlink="http://www.w3.org/1999/xlink" xml:space="preserve" xmlns:serif="http://www.serif.com/" style="fill-rule:evenodd;clip-rule:evenodd;stroke-linejoin:round;stroke-miterlimit:2;">
    <g transform="matrix(1,0,0,1,-459.444,-548.147)">
        <g transform="matrix(2.66667,0,0,2.66667,0,0)">
            <g transform="matrix(1,0,0,1,0,-150.553)">
                <path d="M184.72,361.824L181.398,363.178C179.675,363.861 180.489,363.586 179.718,363.419C179.124,363.29 178.392,363.697 177.903,363.893C177.35,364.114 173.182,365.726 172.865,365.942C171.723,366.725 172.393,368.701 173.942,368.422C174.323,368.353 175.231,367.936 175.635,367.775C176.767,367.324 177.884,366.875 179.028,366.421C179.642,366.177 180.182,366.051 180.535,365.591C180.861,365.165 180.582,365.108 181.065,364.916L185.324,363.228L185.733,364.296C185.599,364.515 185.308,364.754 185.437,365.182C185.754,366.224 187.122,365.379 188.09,364.991C188.467,364.84 189.651,364.421 189.889,364.249C190.459,363.838 190.228,362.886 189.268,362.902L187.87,359.351C188.68,358.261 187.744,357.8 187.126,358.01C186.449,358.24 185.696,358.583 185.024,358.851C184.377,359.109 183.308,359.305 183.438,360.149C183.534,360.773 183.995,360.613 184.281,360.792C184.399,360.866 184.69,361.659 184.72,361.824ZM186.198,365.883C186.232,366.006 186.369,366.307 186.379,366.392C186.422,366.746 186.303,366.468 186.215,366.86C186.131,367.235 186.441,367.56 186.789,367.551L190.71,366.008C191.012,365.798 191.062,365.325 190.74,365.096C190.251,364.746 190.338,365.226 190.078,364.359L186.198,365.883ZM183.319,358.682C183.371,358.882 183.448,359.126 183.586,359.286L187.395,357.764C187.35,357.507 187.281,357.492 187.236,357.299C187.152,356.939 187.223,357.21 187.351,356.897C187.511,356.505 187.284,356.177 186.96,356.111C186.637,356.045 183.809,357.254 183.296,357.457C182.225,357.88 182.598,358.657 183.319,358.682ZM184.585,369.4C184.279,369.563 183.133,370.292 182.961,370.508C186.878,370.484 191.233,370.433 195.109,370.508L193.481,369.399L193.484,368.441L184.582,368.442L184.585,369.4Z" style="fill:rgb(234,192,104);"/>
            </g>
        </g>
    </g>
</svg>
