<?xml version="1.0" encoding="UTF-8" standalone="no"?>
<!DOCTYPE svg PUBLIC "-//W3C//DTD SVG 1.1//EN" "http://www.w3.org/Graphics/SVG/1.1/DTD/svg11.dtd">
<svg width="100%" height="100%" viewBox="0 0 48 39" version="1.1" xmlns="http://www.w3.org/2000/svg" xmlns:xlink="http://www.w3.org/1999/xlink" xml:space="preserve" xmlns:serif="http://www.serif.com/" style="fill-rule:evenodd;clip-rule:evenodd;stroke-linejoin:round;stroke-miterlimit:2;">
    <g transform="matrix(1,0,0,1,-269.158,-547.637)">
        <g transform="matrix(2.66667,0,0,2.66667,0,0)">
            <g transform="matrix(1,0,0,1,0,-151.081)">
                <path d="M101.742,364.19L100.934,364.194C101.422,366.498 105.298,366.503 105.843,364.209L105,364.167L103.405,357.394C105.395,356.949 106.04,356.307 108.083,358.002C108.465,358.32 108.877,358.643 109.281,358.886L108.907,368.784C107.225,369.678 105.84,368.297 105.807,371.061L113.843,371.052C113.831,370.035 113.937,369.504 113,369.265C112.299,369.087 111.386,369.101 110.778,368.784L110.378,358.935L112.783,357.177C114.226,356.56 114.984,357.127 116.213,357.389C115.58,356.767 114.297,356.251 113.053,356.516C111.901,356.761 111.259,357.605 110.406,358.056C110.224,357.626 110.469,357.148 109.855,357.157C109.403,357.165 109.355,357.612 109.324,357.679C109.313,357.703 109.301,357.737 109.29,357.76L109.198,357.913C109.188,357.93 109.168,357.966 109.145,357.987C107.784,356.896 106.485,356.02 104.659,356.672C104.267,356.811 103.522,357.208 103.366,357.491C103.079,358.009 102.014,363.151 101.742,364.19ZM114.711,364.152L113.874,364.25C114.227,366.437 118.307,366.529 118.76,364.227L117.92,364.23L116.494,358.043C116.481,358.004 116.44,357.89 116.423,357.853C116.338,357.665 116.338,357.676 116.258,357.571L114.711,364.152ZM114.869,364.224L117.743,364.229L116.359,358.243L114.869,364.224ZM101.93,364.195L104.784,364.191L103.423,358.243L101.93,364.195Z" style="fill:rgb(234,192,104);"/>
            </g>
        </g>
    </g>
</svg>
