<?xml version="1.0" encoding="UTF-8" standalone="no"?>
<!DOCTYPE svg PUBLIC "-//W3C//DTD SVG 1.1//EN" "http://www.w3.org/Graphics/SVG/1.1/DTD/svg11.dtd">
<svg width="100%" height="100%" viewBox="0 0 9 8" version="1.1" xmlns="http://www.w3.org/2000/svg" xmlns:xlink="http://www.w3.org/1999/xlink" xml:space="preserve" xmlns:serif="http://www.serif.com/" style="fill-rule:evenodd;clip-rule:evenodd;stroke-linejoin:round;stroke-miterlimit:2;">
    <g transform="matrix(1,0,0,1,-159.148,-22.1145)">
        <g transform="matrix(2.66667,0,0,2.66667,0,0)">
            <g transform="matrix(1,0,0,1,0,-556.667)">
                <path d="M61.771,565.818L60.94,565.818C60.918,566.02 60.853,566.091 60.747,566.175L60.135,566.654C60.044,566.744 59.97,566.855 59.96,567.029C59.951,567.172 59.949,567.436 59.96,567.576C59.972,567.735 60.089,567.833 60.255,567.837C60.62,567.845 60.994,567.837 61.36,567.837C61.723,567.837 62.09,567.842 62.453,567.837C62.622,567.835 62.738,567.74 62.753,567.587C62.766,567.448 62.761,567.174 62.754,567.03C62.738,566.708 62.491,566.585 62.277,566.416C61.953,566.16 61.829,566.141 61.771,565.818ZM61.292,566.444C61.046,566.481 60.828,566.707 60.873,567.005C60.909,567.24 61.149,567.46 61.436,567.411C61.675,567.37 61.884,567.14 61.84,566.851C61.806,566.62 61.577,566.402 61.292,566.444ZM60.66,565.514C60.87,565.432 61.088,565.38 61.347,565.378C61.657,565.376 61.802,565.441 62.054,565.51C62.059,565.604 62.054,565.698 62.055,565.792C62.058,565.936 62.16,565.972 62.325,566.101C62.607,566.319 62.59,566.261 62.848,566.018C63.121,565.76 63.115,565.691 62.697,565.389C62.05,564.922 61.15,564.822 60.414,565.16C60.156,565.278 59.885,565.462 59.726,565.638C59.579,565.802 59.823,565.971 59.998,566.146C60.042,566.19 60.097,566.254 60.204,566.227C60.254,566.215 60.488,566.023 60.542,565.981C60.6,565.937 60.654,565.906 60.658,565.805C60.663,565.709 60.656,565.61 60.66,565.514ZM61.261,566.307C60.957,566.356 60.676,566.651 60.735,567.022C60.783,567.321 61.077,567.612 61.455,567.548C61.761,567.497 62.04,567.2 61.977,566.825C61.926,566.521 61.626,566.249 61.261,566.307" style="fill:rgb(35,31,32);"/>
            </g>
        </g>
    </g>
</svg>
